<?xml version="1.0" encoding="utf-8"?>
<!-- Generator: Adobe Illustrator 25.2.0, SVG Export Plug-In . SVG Version: 6.00 Build 0)  -->
<svg version="1.1" id="wordmark" xmlns="http://www.w3.org/2000/svg" xmlns:xlink="http://www.w3.org/1999/xlink" x="0px" y="0px"
	 viewBox="0 0 180.6 218.1" style="enable-background:new 0 0 180.6 218.1;" xml:space="preserve">
<style type="text/css">
	.st0{fill:#111A45;}
	.st1{fill:#4B82C3;}
	.st2{fill:#E6001B;}
	.st3{fill:#7F1C4F;}
</style>
<path id="Path_34704" class="st0" d="M175.4,14c-2.4-2.1-3.6-5.4-3-8.6c0.6-2.1,1.9-4,3.6-5.3c0.2-0.2,0.6-0.2,0.8,0
	c1.7,1.3,3,3.2,3.6,5.3c0.6,3.2-0.6,6.4-3,8.6"/>
<path id="Path_34705" class="st1" d="M174.7,16.6c-0.5,0-1-0.4-1-1v-2.5c0-0.3,0.2-0.5,0.5-0.5l4.4,0c0.3,0,0.5,0.2,0.5,0.5v2.5
	c0,0.5-0.4,1-1,1c0,0,0,0,0,0L174.7,16.6z"/>
<path id="Path_34706" class="st2" d="M150.8,14c-2.4-2.1-3.6-5.4-3-8.6c0.6-2.1,1.8-4,3.6-5.3c0.2-0.2,0.6-0.2,0.8,0
	c1.7,1.3,3,3.2,3.6,5.3c0.6,3.2-0.6,6.4-3,8.6"/>
<path id="Path_34707" class="st1" d="M150.1,16.6c-0.5,0-1-0.4-1-1l0,0v-2.5c0-0.3,0.2-0.5,0.5-0.5l4.4,0c0.3,0,0.5,0.2,0.5,0.5v2.5
	c0,0.5-0.4,1-1,1L150.1,16.6z"/>
<path id="Path_34708" class="st3" d="M126.2,14c-2.4-2.1-3.5-5.4-3-8.6c0.6-2.1,1.9-4,3.6-5.3c0.2-0.2,0.6-0.2,0.8,0
	c1.7,1.3,3,3.2,3.6,5.3c0.6,3.2-0.6,6.4-3,8.6"/>
<path id="Path_34709" class="st1" d="M125.5,16.6c-0.5,0-1-0.4-1-1l0-2.5c0-0.3,0.2-0.5,0.5-0.5l4.4,0c0.3,0,0.5,0.2,0.5,0.5l0,2.5
	c0,0.5-0.4,1-1,1c0,0,0,0,0,0L125.5,16.6z"/>
<path id="Path_34710" class="st0" d="M101.6,14c-2.4-2.1-3.6-5.4-3-8.6c0.6-2.1,1.9-4,3.6-5.3c0.2-0.2,0.6-0.2,0.8,0
	c1.7,1.3,3,3.2,3.6,5.3c0.6,3.2-0.6,6.4-3,8.6"/>
<path id="Path_34711" class="st1" d="M100.9,16.6c-0.5,0-1-0.4-1-1v-2.5c0-0.3,0.2-0.5,0.5-0.5l4.4,0c0.3,0,0.5,0.2,0.5,0.5v2.5
	c0,0.5-0.4,1-1,1c0,0,0,0,0,0L100.9,16.6z"/>
<path id="Path_34712" class="st2" d="M77,14c-2.4-2.1-3.6-5.4-3-8.6c0.6-2.1,1.8-4,3.6-5.3c0.2-0.2,0.6-0.2,0.8,0
	c1.7,1.3,3,3.2,3.6,5.3c0.6,3.2-0.6,6.4-3,8.6"/>
<path id="Path_34713" class="st1" d="M76.3,16.6c-0.5,0-1-0.4-1-1l0,0v-2.5c0-0.3,0.2-0.5,0.5-0.5l4.4,0c0.3,0,0.5,0.2,0.5,0.5v2.5
	c0,0.5-0.4,1-1,1l0,0L76.3,16.6z"/>
<path id="Path_34714" class="st3" d="M52.4,14c-2.4-2.1-3.6-5.4-3-8.6c0.6-2.1,1.9-4,3.6-5.3c0.2-0.2,0.6-0.2,0.8,0
	c1.7,1.3,3,3.2,3.6,5.3c0.6,3.2-0.6,6.4-3,8.6"/>
<path id="Path_34715" class="st1" d="M51.6,16.6c-0.5,0-1-0.4-1-1v-2.5c0-0.3,0.2-0.5,0.5-0.5l4.4,0c0.3,0,0.5,0.2,0.5,0.5v2.5
	c0,0.5-0.4,1-1,1c0,0,0,0,0,0L51.6,16.6z"/>
<path id="Path_34716" class="st0" d="M27.8,14c-2.4-2.1-3.6-5.4-3-8.6c0.6-2.1,1.8-4,3.6-5.3C28.6,0,29,0,29.2,0.1
	c1.7,1.3,3,3.2,3.6,5.3c0.6,3.2-0.6,6.4-3,8.6"/>
<path id="Path_34717" class="st1" d="M27,16.6c-0.5,0-1-0.4-1-1l0,0v-2.5c0-0.3,0.2-0.5,0.5-0.5l4.4,0c0.3,0,0.5,0.2,0.5,0.5v2.5
	c0,0.5-0.4,1-1,1L27,16.6z"/>
<path id="Path_34718" class="st2" d="M3.2,14c-2.4-2.1-3.6-5.4-3-8.6c0.6-2.1,1.9-4,3.6-5.3C4,0,4.4,0,4.6,0.1
	c1.7,1.3,3,3.2,3.6,5.3c0.6,3.2-0.6,6.4-3,8.6"/>
<path id="Path_34719" class="st1" d="M2.4,16.6c-0.5,0-1-0.4-1-1v-2.5c0-0.3,0.2-0.5,0.5-0.5l4.4,0c0.3,0,0.5,0.2,0.5,0.5v2.5
	c0,0.5-0.4,1-1,1c0,0,0,0,0,0L2.4,16.6z"/>
<circle id="Ellipse_3535" class="st1" cx="164" cy="8.3" r="1.8"/>
<circle id="Ellipse_3536" class="st1" cx="139.4" cy="8.3" r="1.8"/>
<circle id="Ellipse_3537" class="st1" cx="114.8" cy="8.3" r="1.8"/>
<circle id="Ellipse_3538" class="st1" cx="90.1" cy="8.3" r="1.8"/>
<circle id="Ellipse_3539" class="st1" cx="65.5" cy="8.3" r="1.8"/>
<circle id="Ellipse_3540" class="st1" cx="40.9" cy="8.3" r="1.8"/>
<circle id="Ellipse_3541" class="st1" cx="16.3" cy="8.3" r="1.8"/>
<path id="Path_34720" class="st0" d="M175.4,215.5c-2.4-2.1-3.6-5.4-3-8.6c0.6-2.1,1.8-4,3.6-5.3c0.2-0.2,0.6-0.2,0.8,0
	c1.7,1.3,3,3.2,3.6,5.3c0.6,3.2-0.6,6.4-3,8.6"/>
<path id="Path_34721" class="st1" d="M174.7,218.1c-0.5,0-1-0.4-1-1v-2.5c0-0.3,0.2-0.5,0.5-0.5l4.4,0c0.3,0,0.5,0.2,0.5,0.5v2.5
	c0,0.5-0.4,1-1,1c0,0,0,0,0,0L174.7,218.1z"/>
<path id="Path_34722" class="st2" d="M150.8,215.5c-2.4-2.1-3.6-5.4-3-8.6c0.6-2.1,1.8-4,3.6-5.3c0.2-0.2,0.6-0.2,0.8,0
	c1.7,1.3,3,3.2,3.6,5.3c0.6,3.2-0.6,6.4-3,8.6"/>
<path id="Path_34723" class="st1" d="M150.1,218.1c-0.5,0-1-0.4-1-1c0,0,0,0,0,0v-2.5c0-0.3,0.2-0.5,0.5-0.5l4.4,0
	c0.3,0,0.5,0.2,0.5,0.5v2.5c0,0.5-0.4,1-1,1L150.1,218.1z"/>
<path id="Path_34724" class="st3" d="M126.2,215.5c-2.4-2.1-3.5-5.4-3-8.6c0.6-2.1,1.8-4,3.6-5.3c0.2-0.2,0.6-0.2,0.8,0
	c1.7,1.3,3,3.2,3.6,5.3c0.6,3.2-0.6,6.4-3,8.6"/>
<path id="Path_34725" class="st1" d="M125.5,218.1c-0.5,0-1-0.4-1-1l0-2.5c0-0.3,0.2-0.5,0.5-0.5l4.4,0c0.3,0,0.5,0.2,0.5,0.5l0,2.5
	c0,0.5-0.4,1-1,1c0,0,0,0,0,0L125.5,218.1z"/>
<path id="Path_34726" class="st0" d="M101.6,215.5c-2.4-2.1-3.6-5.4-3-8.6c0.6-2.1,1.8-4,3.6-5.3c0.2-0.2,0.6-0.2,0.8,0
	c1.7,1.3,3,3.2,3.6,5.3c0.6,3.2-0.6,6.4-3,8.6"/>
<path id="Path_34727" class="st1" d="M100.9,218.1c-0.5,0-1-0.4-1-1v-2.5c0-0.3,0.2-0.5,0.5-0.5l4.4,0c0.3,0,0.5,0.2,0.5,0.5v2.5
	c0,0.5-0.4,1-1,1L100.9,218.1z"/>
<path id="Path_34728" class="st2" d="M77,215.5c-2.4-2.1-3.6-5.4-3-8.6c0.6-2.1,1.8-4,3.6-5.3c0.2-0.2,0.6-0.2,0.8,0
	c1.7,1.3,3,3.2,3.6,5.3c0.6,3.2-0.6,6.4-3,8.6"/>
<path id="Path_34729" class="st1" d="M76.3,218.1c-0.5,0-1-0.4-1-1c0,0,0,0,0,0v-2.5c0-0.3,0.2-0.5,0.5-0.5l4.4,0
	c0.3,0,0.5,0.2,0.5,0.5v2.5c0,0.5-0.4,1-1,1L76.3,218.1z"/>
<path id="Path_34730" class="st3" d="M52.4,215.5c-2.4-2.1-3.6-5.4-3-8.6c0.6-2.1,1.8-4,3.6-5.3c0.2-0.2,0.6-0.2,0.8,0
	c1.7,1.3,3,3.2,3.6,5.3c0.6,3.2-0.6,6.4-3,8.6"/>
<path id="Path_34731" class="st1" d="M51.6,218.1c-0.5,0-1-0.4-1-1v-2.5c0-0.3,0.2-0.5,0.5-0.5l4.4,0c0.3,0,0.5,0.2,0.5,0.5v2.5
	c0,0.5-0.4,1-1,1c0,0,0,0,0,0L51.6,218.1z"/>
<path id="Path_34732" class="st0" d="M27.8,215.5c-2.4-2.1-3.5-5.4-3-8.6c0.6-2.1,1.8-4,3.6-5.3c0.2-0.2,0.6-0.2,0.8,0
	c1.7,1.3,3,3.2,3.6,5.3c0.6,3.2-0.6,6.4-3,8.6"/>
<path id="Path_34733" class="st1" d="M27,218.1c-0.5,0-1-0.4-1-1c0,0,0,0,0,0v-2.5c0-0.3,0.2-0.5,0.5-0.5l4.4,0
	c0.3,0,0.5,0.2,0.5,0.5v2.5c0,0.5-0.4,1-1,1L27,218.1z"/>
<path id="Path_34734" class="st2" d="M3.2,215.5c-2.4-2.1-3.6-5.4-3-8.6c0.6-2.1,1.8-4,3.6-5.3c0.2-0.2,0.6-0.2,0.8,0
	c1.7,1.3,3,3.2,3.6,5.3c0.6,3.2-0.6,6.4-3,8.6"/>
<path id="Path_34735" class="st1" d="M2.4,218.1c-0.5,0-1-0.4-1-1v-2.5c0-0.3,0.2-0.5,0.5-0.5l4.4,0c0.3,0,0.5,0.2,0.5,0.5v2.5
	c0,0.5-0.4,1-1,1c0,0,0,0,0,0L2.4,218.1z"/>
<circle id="Ellipse_3542" class="st1" cx="164" cy="209.8" r="1.8"/>
<circle id="Ellipse_3543" class="st1" cx="139.4" cy="209.8" r="1.8"/>
<circle id="Ellipse_3544" class="st1" cx="114.8" cy="209.8" r="1.8"/>
<circle id="Ellipse_3545" class="st1" cx="90.1" cy="209.8" r="1.8"/>
<circle id="Ellipse_3546" class="st1" cx="65.5" cy="209.8" r="1.8"/>
<circle id="Ellipse_3547" class="st1" cx="40.9" cy="209.8" r="1.8"/>
<circle id="Ellipse_3548" class="st1" cx="16.3" cy="209.8" r="1.8"/>
<path id="Path_34736" class="st0" d="M30.3,78.2h-7.1l-2.2-9.8c0-0.5-0.4-0.8-0.9-0.8H9.8c-0.4,0-0.8,0.3-0.8,0.7l-2.1,9.8H0l8.3-36
	c0.1-0.2,0.1-0.4,0.1-0.6c0-0.6-0.4-1-1.7-1H2.2v-6.2h18.4L30.3,78.2z M15.3,43.2c-0.1-0.2-0.2-0.3-0.3-0.3s-0.2,0.1-0.3,0.3
	l-4.1,18.4c0,0.4,0.1,0.6,0.6,0.6h7.7c0.5,0,0.5-0.3,0.5-0.7L15.3,43.2z"/>
<path id="Path_34737" class="st0" d="M55,78.1H32.4V34.3h7.3V70c0,1.1,0.8,2,1.9,2c0.1,0,0.2,0,0.3,0H55V78.1z"/>
<path id="Path_34738" class="st0" d="M92.7,34.3l-7.8,43.8h-7.1l-3.5-21.5c-0.1-0.2-0.2-0.3-0.3-0.3c-0.2,0-0.3,0.1-0.4,0.3
	l-3.8,21.5h-7.1l-7.2-43.8h7l3.5,25c0,0.2,0.1,0.4,0.3,0.4c0,0,0.1,0,0.1,0c0.2,0,0.4-0.2,0.5-0.5l3.8-25h7l3.5,25
	c0,0.2,0.1,0.4,0.3,0.4c0,0,0.1,0,0.1,0c0.2,0,0.4-0.2,0.5-0.5l3.8-25L92.7,34.3z"/>
<path id="Path_34739" class="st0" d="M122.8,78.2h-7.1l-2.2-9.8c0-0.5-0.4-0.8-0.9-0.8h-10.1c-0.4,0-0.8,0.3-0.8,0.7l-2.1,9.8h-6.9
	l8.3-36c0.1-0.2,0.1-0.4,0.1-0.6c0-0.6-0.4-1-1.7-1h-4.4v-6.2h18.4L122.8,78.2z M107.9,43.2c-0.1-0.2-0.2-0.3-0.3-0.3
	s-0.2,0.1-0.3,0.3l-4.1,18.4c0,0.4,0.1,0.6,0.6,0.6h7.7c0.5,0,0.5-0.3,0.5-0.7L107.9,43.2z"/>
<path id="Path_34740" class="st0" d="M150,41.2c0,16.6-1.9,20.6-9.5,21.4v15.5h-6.8V62.5c-7.5-0.8-9.4-5.1-9.4-21.3v-7h6.8v7
	c0,13.4,1.7,14.5,5.9,14.5c4.4,0,6.1-0.9,6.1-14.5v-7h6.9L150,41.2z"/>
<path id="Path_34741" class="st0" d="M178.4,67.6c0,7.1-3.8,11.6-13.2,11.6c-10.1,0-12.8-2.8-12.8-13.2h7.1c0,4.9,0.5,6.5,5.8,6.5
	c4.8,0,5.8-1.8,5.8-5c0-2.2-0.3-3.5-4.6-6.5l-4-2.8c-5-3.5-10-6.1-10-13.6c0-6.4,3.2-11.1,13-11.1c10.2,0,12.6,2.7,12.6,12.4h-7
	c0-5.4-2-5.8-5.8-5.8c-4.3,0-5.6,1.7-5.6,4.6c0,2,0.6,3.4,6.1,7l4.6,3c3.9,2.6,7.5,5.9,8,10.6C178.3,66,178.4,66.8,178.4,67.6z"/>
<path id="Path_34742" class="st3" d="M50.1,121.2h-5v-11.1c0-0.3-0.2-0.5-0.3-0.5c-0.2,0-0.3,0.2-0.4,0.3l-3.2,11.3H38L34.7,110
	c-0.1-0.4-0.3-0.5-0.4-0.5c-0.2,0-0.4,0.3-0.4,0.7v11h-5v-32h5l5.2,18.3c0.1,0.5,0.4,0.8,0.7,0.8c0.2,0,0.5-0.3,0.6-0.8l4.8-18.3h5
	L50.1,121.2z"/>
<path id="Path_34743" class="st3" d="M73.7,121.2h-5.2l-1.6-7.1c0-0.3-0.3-0.6-0.7-0.6h-7.4c-0.3,0-0.6,0.2-0.6,0.5l-1.5,7.2h-5
	l6-26.2c0-0.1,0.1-0.3,0-0.4c0-0.4-0.3-0.7-1.3-0.7h-3.2v-4.5h13.4L73.7,121.2z M62.8,95.7c0-0.1-0.1-0.2-0.2-0.2s-0.2,0.1-0.2,0.2
	l-3,13.4c0,0.3,0,0.4,0.4,0.4h5.6c0.4,0,0.4-0.2,0.4-0.5L62.8,95.7z"/>
<path id="Path_34744" class="st3" d="M93.7,121.2h-5.4l-7-12.1c-0.1-0.3-0.4-0.5-0.7-0.5c-0.2,0-0.3,0.1-0.3,0.4v12.2h-4.9v-32h4.9
	v12.4c0,0.4,0.2,0.4,0.4,0.4c0.3,0,0.6-0.1,0.7-0.4l6.9-12.5h5.4l-8.2,15.1c-0.1,0.3-0.2,0.6-0.2,0.9c0,0.3,0.1,0.6,0.2,0.9
	L93.7,121.2z"/>
<path id="Path_34745" class="st3" d="M111.1,121.1H95.7v-32h15.4v4.6h-9.4c-0.6,0.1-1.1,0.5-1.1,1.1v8.5c0,0.6,0.4,1,1,1.1h7.7v5
	h-7.7c-0.6,0-1.1,0.5-1.1,1.1c0,0,0,0,0,0v4.3c-0.1,0.5,0.4,1,0.9,1.1c0,0,0.1,0,0.1,0h9.4L111.1,121.1z"/>
<path id="Path_34746" class="st3" d="M130.8,121.1h-5V89.2h5V121.1z"/>
<path id="Path_34747" class="st3" d="M151.7,93.8H146c-0.6,0-1,0.5-1,1.1c0,0,0,0,0,0v26.2h-5V94.8c0-0.6-0.3-1-0.8-1h-5.8v-4.6
	h18.3V93.8z"/>
<path id="Path_34748" class="st0" d="M35.2,185.2h-8.3v-18.5c0-0.6-0.3-0.9-0.6-0.9c-0.3,0-0.5,0.3-0.6,0.6l-5.3,18.7h-5.3
	l-5.6-18.5c-0.1-0.6-0.4-0.9-0.7-0.9c-0.3,0-0.6,0.4-0.6,1.2v18.2H0v-53.2h8.3l8.6,30.4c0.2,0.9,0.7,1.3,1.1,1.3
	c0.4,0,0.8-0.4,1-1.3l7.9-30.4h8.3L35.2,185.2z"/>
<path id="Path_34749" class="st0" d="M65.7,185.2H40v-53.1h25.6v7.7H50.1c-1,0.1-1.8,0.9-1.8,1.9v14.2c0,0.9,0.7,1.7,1.7,1.8h12.8
	v8.3H50c-1,0-1.8,0.9-1.7,1.9c0,0,0,0,0,0.1v7.2c-0.1,0.9,0.6,1.7,1.5,1.8c0.1,0,0.1,0,0.2,0h15.7V185.2z"/>
<path id="Path_34750" class="st0" d="M104.7,185.2h-8.6l-10.4-19.9c-0.2-0.4-0.4-0.7-0.9-0.7h-1.7c-0.6,0-0.8,0.3-0.8,0.9v19.7h-8.1
	v-43.4c0.1-1-0.7-1.9-1.7-2c0,0-0.1,0-0.1,0h-4.7v-7.6H89c11.4,0,15.5,4.4,15.5,16.5c0,9.8-3.3,14.2-10.8,15.5L104.7,185.2z
	 M86.9,139.8h-3.7c-0.5,0-0.8,0.2-0.8,0.9v15.3c-0.1,0.4,0.3,0.8,0.7,0.9c0,0,0.1,0,0.1,0h3.7c7.9,0,9.5-2.2,9.5-8.1
	C96.4,142.4,95.5,139.8,86.9,139.8L86.9,139.8z"/>
<path id="Path_34751" class="st0" d="M144.4,185.2h-8.6l-10.4-19.9c-0.2-0.4-0.4-0.7-0.9-0.7h-1.7c-0.6,0-0.8,0.3-0.8,0.9v19.7H114
	v-43.4c0.1-1-0.7-1.9-1.7-2c0,0-0.1,0-0.1,0h-4.6v-7.6h21.3c11.4,0,15.5,4.4,15.5,16.5c0,9.8-3.3,14.2-10.8,15.5L144.4,185.2z
	 M126.6,139.8h-3.7c-0.5,0-0.8,0.2-0.8,0.9v15.3c-0.1,0.4,0.3,0.8,0.7,0.9c0,0,0.1,0,0.1,0h3.7c7.9,0,9.5-2.2,9.5-8.1
	C136.1,142.4,135.2,139.8,126.6,139.8L126.6,139.8z"/>
<path id="Path_34752" class="st0" d="M179.1,140.5c0,20.1-2.3,25-11.5,25.9v18.8h-8.3v-18.9c-9.1-0.9-11.3-6.2-11.3-25.8v-8.4h8.3
	v8.5c0,16.3,2,17.6,7.1,17.6c5.3,0,7.3-1.1,7.3-17.6v-8.5h8.4L179.1,140.5z"/>
<path id="Path_34753" class="st1" d="M14.2,108.9c-1.6-0.3-2.7-1.9-2.3-3.5s1.9-2.7,3.5-2.3c0,0,0,0,0,0l0.1,0
	c1.6,0.4,2.6,2,2.2,3.6C17.3,108.3,15.8,109.3,14.2,108.9L14.2,108.9z"/>
<path id="Path_34754" class="st1" d="M160.5,108.9c-1.6-0.3-2.6-1.9-2.3-3.5c0.3-1.6,1.9-2.6,3.5-2.3l0.1,0c1.6,0.4,2.6,1.9,2.3,3.5
	C163.7,108.3,162.1,109.3,160.5,108.9L160.5,108.9z"/>
</svg>
