<?xml version="1.0" encoding="utf-8"?>
<!-- Generator: Adobe Illustrator 23.0.1, SVG Export Plug-In . SVG Version: 6.00 Build 0)  -->
<svg version="1.1" id="house" xmlns="http://www.w3.org/2000/svg" xmlns:xlink="http://www.w3.org/1999/xlink" x="0px" y="0px"
	 viewBox="0 0 422.5 194" style="enable-background:new 0 0 422.5 194;" xml:space="preserve">
<style type="text/css">
	.st0{fill:#962C61;}
	.st1{fill:#232356;}
	.st2{fill:#ED2127;}
	.st3{fill:#EAAEC8;}
	.st4{fill:#FFF6F0;}
	.st5{fill:#962B62;}
</style>
<g id="tree" transform="translate(979.699 1371.091)">
	<rect id="Rectangle_475" x="-905.1" y="-1204.3" class="st0" width="17.7" height="25.1"/>
	<path id="Path_4818" class="st1" d="M-863.6-1294.4c-9.2,0-24.9-3.8-33.1-21.7c-8.3,17.8-24,21.7-33.2,21.7v11.3
		c5.3,0,15.4-0.2,23.3-4.9c-2.8,12.6-13.2,14.9-23.3,14.9v11.3c5.3,0,15.4-0.2,23.3-4.9c-2.8,12.6-13.2,15-23.3,15v11.3
		c5.3,0,15.4-0.2,23.3-4.9c-2.8,12.6-13.2,14.9-23.3,14.9v11.3c5.3,0,15.4-0.2,23.3-4.9c-2.8,12.5-13.2,14.9-23.3,14.9v11.3h66.3
		v-11.3c-10.1,0-20.5-2.4-23.3-14.9c7.9,4.7,18,4.9,23.3,4.9v-11.3c-10.1,0-20.5-2.4-23.3-14.9c7.9,4.7,18,4.9,23.3,4.9v-11.3
		c-10.1,0-20.5-2.4-23.3-14.9c7.9,4.7,18,4.9,23.3,4.9v-11.4c-10.1,0-20.5-2.3-23.3-14.8c7.9,4.7,18,4.9,23.3,4.9V-1294.4z"/>
</g>
<g id="house-2" transform="translate(1028 1316.133)">
	<rect id="Rectangle_149" x="-902.1" y="-1142.2" class="st2" width="20.4" height="20.1"/>
	<g id="Group_492" transform="translate(23.287 31.698)">
		<path id="Path_2557" class="st1" d="M-929.9-1301.5c0,8.1,6.5,14.6,14.6,14.6c8.1,0,14.6-6.5,14.6-14.6s-6.5-14.6-14.6-14.6l0,0
			C-923.4-1316.1-929.9-1309.6-929.9-1301.5z M-920.4-1301.5c0-2.9,2.3-5.2,5.2-5.2c2.9,0,5.2,2.3,5.2,5.2s-2.3,5.2-5.2,5.2l0,0
			C-918.1-1296.3-920.4-1298.6-920.4-1301.5L-920.4-1301.5z"/>
		<g id="Group_491" transform="translate(4.526 18.234)">
			<g id="Group_490">
				<path id="Path_2558" class="st2" d="M-910.5-1316.1l-10.1,5.8l10.1,5.8C-910.5-1304.5-910.5-1316.1-910.5-1316.1z"/>
				<path id="Path_2559" class="st2" d="M-929.9-1316.1l10.1,5.8l-10.1,5.8V-1316.1z"/>
				<circle id="Ellipse_190" class="st2" cx="-920.2" cy="-1310.5" r="1.4"/>
			</g>
		</g>
	</g>
	<rect id="Rectangle_132" x="-929.9" y="-1263.2" class="st3" width="185" height="141"/>
	<rect id="Rectangle_133" x="-929.9" y="-1263.2" class="st4" width="78" height="141"/>
	<path id="Path_2555" class="st3" d="M-852.3-1263.6l-39.6-52.5l-38,52.5H-852.3z"/>
	<path id="Path_2556" class="st0" d="M-892.2-1316.1h96.6l49.7,52.5h-106.7L-892.2-1316.1z"/>
	<g id="window">
		<rect id="window15" x="-771.2" y="-1162.7" class="st1" width="8.9" height="20.4"/>
		<rect id="window14" x="-771.2" y="-1202.5" class="st1" width="8.9" height="20.4"/>
		<rect id="window13" x="-771.2" y="-1242.3" class="st1" width="8.9" height="20.4"/>
		<rect id="window12" x="-803" y="-1162.7" class="st1" width="8.9" height="20.4"/>
		<rect id="window11" x="-803" y="-1202.5" class="st1" width="8.9" height="20.4"/>
		<rect id="window10" x="-803" y="-1242.3" class="st1" width="8.9" height="20.4"/>
		<rect id="window9" x="-834.9" y="-1162.7" class="st1" width="8.9" height="20.4"/>
		<rect id="window8" x="-834.9" y="-1202.5" class="st1" width="8.9" height="20.4"/>
		<rect id="window7" x="-834.9" y="-1242.3" class="st1" width="8.9" height="20.4"/>
		<rect id="window6" x="-881.7" y="-1162.6" class="st1" width="8.9" height="20.4"/>
		<rect id="window5" x="-881.7" y="-1202.6" class="st1" width="8.9" height="20.4"/>
		<rect id="window4" x="-881.7" y="-1242.4" class="st1" width="8.9" height="20.4"/>
		<rect id="window3" x="-910.9" y="-1162.6" class="st1" width="8.9" height="20.4"/>
		<rect id="window2" x="-911.4" y="-1202.6" class="st1" width="8.9" height="20.4"/>
		<rect id="window1" x="-911.4" y="-1242.4" class="st1" width="8.9" height="20.4"/>
	</g>
</g>
<g id="tree-2" transform="translate(1297.824 1395.453)">
	<rect id="Rectangle_475-2" x="-909.5" y="-1224.2" class="st0" width="14.5" height="20.6"/>
	<path id="Path_4818-2" class="st1" d="M-875.4-1298.3c-7.6,0-20.5-3.1-27.3-17.8c-4.6,10.9-15.4,17.9-27.2,17.8v9.3
		c4.3,0,12.6-0.2,19.1-4c-2.2,10.3-10.8,12.3-19.1,12.3v9.3c4.3,0,12.6-0.2,19.1-4c-2.2,10.3-10.8,12.2-19.1,12.2v9.3
		c4.3,0,12.6-0.2,19.1-4c-2.2,10.3-10.8,12.3-19.1,12.3v9.3c4.3,0,12.6-0.2,19.1-4c-2.2,10.3-10.8,12.2-19.1,12.2v9.3h54.5v-9.3
		c-8.3,0-16.9-1.9-19.1-12.2c6.5,3.8,14.8,4,19.1,4v-9.3c-8.3,0-16.9-1.9-19.1-12.2c6.5,3.8,14.8,4,19.1,4v-9.3
		c-8.3,0-16.9-1.9-19.1-12.2c6.5,3.8,14.8,4,19.1,4v-9.3c-8.3,0-16.9-1.9-19.1-12.2c6.5,3.8,14.8,4,19.1,4V-1298.3L-875.4-1298.3z"
		/>
</g>
<g id="big_man" transform="translate(922.014 1411.998)">
	<g id="body" transform="translate(9.845)">
		<path id="body-2" class="st0" d="M-879.1-1266.9c11-11.8,10.4-30.4-1.5-41.5c-11.9-11.1-30.4-10.4-41.4,1.5
			c-10.7,11.4-10.5,29.2,0.4,40.4c4,4.1,5.3,10.1,3.4,15.4c-1.5,10.5,0.9,21.3,6.7,30.2c1,1.6,2.7,2.5,4.6,2.5l0,0
			c2.8,0,5.1-2,5.4-4.8c0.3-2.7,0.3-3.7,0.1-8.9c-0.1-1,0.6-1.8,1.6-1.9s1.8,0.6,1.9,1.6c0,0.1,0,0.2,0,0.3
			c-0.5,5.8-0.2,7.5,0.2,9.4c0.6,3,3.6,4.9,6.6,4.3c1.4-0.3,2.7-1.2,3.5-2.4c5.8-8.9,8.2-19.6,6.7-30.2
			C-883.9-1260.4-880.2-1265.8-879.1-1266.9z"/>
		<path id="Path_4860" class="st4" d="M-901.4-1226.2h-13.3l0.9,1.9h12.4V-1226.2z"/>
		<path id="Path_4861" class="st4" d="M-884.9-1226.2h-13.5c0,0.6,0.1,1.3,0.2,1.9h12.5C-885.5-1225-885.2-1225.6-884.9-1226.2z"/>
	</g>
	<g id="hands" transform="translate(7.855 47.458)">
		<path id="hand_left" class="st5" d="M-929-1297.8c-2.6-4.2,1.1-8.3,3.8-10c2.7-1.7,15.1-8.3,15.1-8.3l6,10.4l-13.6,7.9
			C-920.1-1296.4-926.4-1293.6-929-1297.8z"/>
		<path id="line_left" class="st4" d="M-918.9-1297.3l-6.2-10.4c-0.5,0.3-1,0.6-1.5,1l6,10.2L-918.9-1297.3z"/>
		<path id="hand_right" class="st5" d="M-865.9-1297.8c2.6-4.2-1.1-8.3-3.8-10c-2.7-1.6-15.2-8.3-15.2-8.3l-6,10.4l13.6,7.9
			C-874.8-1296.4-868.5-1293.6-865.9-1297.8z"/>
		<path id="line_right" class="st4" d="M-876-1297.3l6.1-10.4c0.5,0.3,1.1,0.7,1.6,1.1l-6,10.2L-876-1297.3z"/>
	</g>
	<path id="mouth" class="st1" d="M-890.9-1276.8c-2.9-0.1-5.5-1.8-6.8-4.4l1.7-0.8c0.9,1.8,3,3.5,5.4,3.3c1.9-0.3,3.6-1.5,4.4-3.2
		l1.7,0.9c-1.1,2.3-3.4,3.9-6,4.2H-890.9z"/>
	<g id="eyes" transform="translate(21.928 19.826)">
		<circle id="eye_right" class="st1" cx="-901.5" cy="-1311.3" r="4.8"/>
		<circle id="eye_left" class="st1" cx="-925.1" cy="-1311.3" r="4.8"/>
	</g>
	<g id="eyebrows" transform="translate(17.411 13.007)">
		<path id="eyebrow_right" class="st4" d="M-889.9-1309.2c-1-2-2.6-3.7-4.6-4.6c-2-0.8-4.4-0.6-7,0.6l-0.7-1.6
			c3-1.5,5.9-1.7,8.4-0.6s4.5,3.1,5.6,5.6L-889.9-1309.2z"/>
		<path id="eyebrow_left" class="st4" d="M-928.3-1309.2l-1.6-0.7c1.1-2.5,3.1-4.5,5.6-5.6c2.5-0.9,5.3-0.7,8.4,0.6l-0.7,1.6
			c-2.6-1.3-4.9-1.5-7-0.6C-925.7-1312.9-927.4-1311.3-928.3-1309.2z"/>
	</g>
	<g id="Group_1581" transform="translate(27.748 48.082)">
		<ellipse id="Ellipse_836" class="st4" cx="-918.4" cy="-1301.9" rx="2.5" ry="2.5"/>
		<ellipse id="Ellipse_837" class="st4" cx="-918.4" cy="-1292.5" rx="2.5" ry="2.5"/>
		<path id="Path_4857" class="st2" d="M-911.4-1315.6l-4.1,2.3c-0.6-1-1.7-1.7-2.8-1.7c-1.3,0-2.4,0.7-2.9,1.9l-4.5-2.6
			c-1.4-0.8-3.1-0.3-3.8,1c-0.3,0.4-0.4,0.9-0.4,1.4v3.9c0,1.6,1.3,2.8,2.9,2.8c0.5,0,0.9-0.1,1.3-0.4l4.9-2.8
			c0.6,0.8,1.5,1.2,2.5,1.3c0.9,0,1.7-0.4,2.3-1l4.5,2.4c1.4,0.8,3.1,0.3,3.8-1.1c0.2-0.4,0.4-0.9,0.4-1.3v-3.8
			c0-1.5-1.2-2.7-2.7-2.7C-910.5-1316-911-1315.9-911.4-1315.6z"/>
	</g>
</g>
</svg>
