<svg id="Layer_1" data-name="Layer 1" xmlns="http://www.w3.org/2000/svg" viewBox="0 0 84.91 47.85"><title>social_integ_leaf</title><g id="Group_1544" data-name="Group 1544"><g id="Group_1539" data-name="Group 1539"><path id="Path_4659" data-name="Path 4659" d="M6,18.9c2.86-.68,5.51-.91,7.76,1.17s2.33,6.29,2.18,9.17c3.53-.8,6.87-1.51,9.52.89,3,2.67,2.83,4.38,2.56,7.72,4.33-3.15,10.6-3.75,16-4.43L7.59,8.48l.69-1L43.74,31.83A29.25,29.25,0,0,1,42.38,12.7c-3.54.8-3.47,1.32-6.85.57a7.62,7.62,0,0,1-6-7.19C27.1,7.67,24,8.56,21.22,7.6c-3-1-3.93-3.71-4.74-6.46a23.77,23.77,0,0,1-8,2.92C5.66,4.42,2.73,3.6,0,2.69A19.55,19.55,0,0,1,6,18.9Z" style="fill:#232356;fill-rule:evenodd"/><path id="Path_4660" data-name="Path 4660" d="M19.41,21.06A1.8,1.8,0,1,1,18,23.19,1.81,1.81,0,0,1,19.41,21.06Z" style="fill:#6993cd;fill-rule:evenodd"/><path id="Path_4661" data-name="Path 4661" d="M33.87,16.74a1.8,1.8,0,1,1-1.4,2.13A1.82,1.82,0,0,1,33.87,16.74Z" style="fill:#6993cd;fill-rule:evenodd"/><path id="Path_4662" data-name="Path 4662" d="M24.56,11.29a2.34,2.34,0,1,1-1.78,2.79h0A2.38,2.38,0,0,1,24.56,11.29Z" style="fill:#6993cd;fill-rule:evenodd"/></g><g id="Group_1540" data-name="Group 1540"><path id="Path_4663" data-name="Path 4663" d="M68.4,1.79c0,2.86-.45,5.4-3,7S59,9.5,56.26,8.63c-.09,3.48-.2,6.84-3.07,8.74-3.25,2.21-4.8,1.61-7.87.62,1.92,4.83,1,10.82.39,16.09l32-28.28.77.86L47.25,34.24a28.62,28.62,0,0,1,18.3,3.22c.1-3.48-.41-3.57,1.08-6.55A7.31,7.31,0,0,1,74.82,27a9.27,9.27,0,0,1,.54-8.18C77,16.24,79.7,16,82.42,15.86a21.63,21.63,0,0,1-.75-8.2C82,5,83.44,2.4,84.91,0A18.46,18.46,0,0,1,68.4,1.79Z" style="fill:#222458;fill-rule:evenodd"/><path id="Path_4664" data-name="Path 4664" d="M63.2,14a1.74,1.74,0,0,1-1.8,1.69h0a1.69,1.69,0,0,1-1.69-1.72v-.1A1.76,1.76,0,0,1,63.2,14Z" style="fill:#6993cd;fill-rule:evenodd"/><path id="Path_4665" data-name="Path 4665" d="M63.86,28.54a1.74,1.74,0,0,1-1.8,1.69h0a1.72,1.72,0,0,1-1.7-1.72.41.41,0,0,1,0-.11,1.76,1.76,0,1,1,3.51.14Z" style="fill:#6993cd;fill-rule:evenodd"/><path id="Path_4666" data-name="Path 4666" d="M71.19,21.11A2.27,2.27,0,1,1,69,18.77h0A2.25,2.25,0,0,1,71.19,21.11Z" style="fill:#6993cd;fill-rule:evenodd"/></g><g id="Group_1541" data-name="Group 1541"><path id="Path_4667" data-name="Path 4667" d="M60.27,41.81a4.68,4.68,0,1,1-4.38-5A4.67,4.67,0,0,1,60.27,41.81Z" style="fill:#ed2127;fill-rule:evenodd"/><path id="Path_4668" data-name="Path 4668" d="M58.19,40.3a1.8,1.8,0,1,1-1.68-1.91h0A1.81,1.81,0,0,1,58.19,40.3Z" style="fill:#962c61;fill-rule:evenodd"/></g><g id="Group_1542" data-name="Group 1542"><path id="Path_4669" data-name="Path 4669" d="M47.28,47.43A3.22,3.22,0,1,1,48.49,43a3.22,3.22,0,0,1-1.21,4.39Z" style="fill:#ed2127;fill-rule:evenodd"/><path id="Path_4670" data-name="Path 4670" d="M47.35,45.67a1.19,1.19,0,0,1-1.63-.44h0a1.22,1.22,0,0,1,.47-1.66l0,0a1.19,1.19,0,0,1,1.63.44h0A1.29,1.29,0,0,1,47.35,45.67Z" style="fill:#962c61;fill-rule:evenodd"/></g><g id="Group_1543" data-name="Group 1543"><path id="Path_4671" data-name="Path 4671" d="M51.88,35.4a4.69,4.69,0,1,1-4-5.33A4.68,4.68,0,0,1,51.88,35.4Z" style="fill:#ed2127;fill-rule:evenodd"/><path id="Path_4672" data-name="Path 4672" d="M50,33.74a1.8,1.8,0,1,1-1.52-2h0A1.82,1.82,0,0,1,50,33.74Z" style="fill:#962c61;fill-rule:evenodd"/></g></g></svg>