<svg xmlns="http://www.w3.org/2000/svg" viewBox="0 0 235.397 111.917" width="235px" height="112px">
  <defs>
    <style>
      .cls-1 {
        fill: #962c61;
      }

      .cls-2 {
        fill: #ed2127;
      }

      .cls-3 {
        fill: #232356;
      }

      .cls-4 {
        fill: #fff6f0;
      }

      .cls-5 {
        fill: #eaaec8;
      }

      .cls-6 {
        fill: #6993cd;
      }
    </style>
  </defs>
  <g id="Group_622" data-name="Group 622" transform="translate(178.57 0.01)">
    <rect id="Rectangle_189" data-name="Rectangle 189" class="cls-1" width="3.641" height="21.031" transform="translate(5.61)"/>
    <rect id="Rectangle_190" data-name="Rectangle 190" class="cls-1" width="3.641" height="21.031" transform="translate(11.983)"/>
    <rect id="Rectangle_191" data-name="Rectangle 191" class="cls-2" width="21.22" height="97.874" transform="translate(0 14.032)"/>
    <g id="Group_619" data-name="Group 619" transform="translate(4.373 20.245)">
      <rect id="Rectangle_192" data-name="Rectangle 192" class="cls-3" width="5.01" height="5.01"/>
      <rect id="Rectangle_193" data-name="Rectangle 193" class="cls-3" width="5.01" height="5.01" transform="translate(7.679)"/>
      <rect id="Rectangle_194" data-name="Rectangle 194" class="cls-3" width="5.01" height="5.01" transform="translate(0 10.348)"/>
      <rect id="Rectangle_195" data-name="Rectangle 195" class="cls-3" width="5.01" height="5.01" transform="translate(7.679 10.348)"/>
      <rect id="Rectangle_196" data-name="Rectangle 196" class="cls-3" width="5.01" height="5.01" transform="translate(0 21.018)"/>
      <rect id="Rectangle_197" data-name="Rectangle 197" class="cls-3" width="5.01" height="5.01" transform="translate(7.679 21.018)"/>
    </g>
    <g id="Group_620" data-name="Group 620" transform="translate(4.373 51.31)">
      <rect id="Rectangle_198" data-name="Rectangle 198" class="cls-3" width="5.01" height="5.01"/>
      <rect id="Rectangle_199" data-name="Rectangle 199" class="cls-3" width="5.01" height="5.01" transform="translate(7.679)"/>
      <rect id="Rectangle_200" data-name="Rectangle 200" class="cls-3" width="5.01" height="5.01" transform="translate(0 10.348)"/>
      <rect id="Rectangle_201" data-name="Rectangle 201" class="cls-3" width="5.01" height="5.01" transform="translate(7.679 10.348)"/>
      <rect id="Rectangle_202" data-name="Rectangle 202" class="cls-3" width="5.01" height="5.01" transform="translate(0 21.018)"/>
      <rect id="Rectangle_203" data-name="Rectangle 203" class="cls-3" width="5.01" height="5.01" transform="translate(7.679 21.018)"/>
    </g>
    <g id="Group_621" data-name="Group 621" transform="translate(4.373 82.377)">
      <rect id="Rectangle_204" data-name="Rectangle 204" class="cls-3" width="5.01" height="5.01"/>
      <rect id="Rectangle_205" data-name="Rectangle 205" class="cls-3" width="5.01" height="5.01" transform="translate(7.679)"/>
      <rect id="Rectangle_206" data-name="Rectangle 206" class="cls-3" width="5.01" height="5.01" transform="translate(0 10.345)"/>
      <rect id="Rectangle_207" data-name="Rectangle 207" class="cls-3" width="5.01" height="5.01" transform="translate(7.679 10.345)"/>
      <rect id="Rectangle_208" data-name="Rectangle 208" class="cls-3" width="5.01" height="5.01" transform="translate(0 21.015)"/>
      <rect id="Rectangle_209" data-name="Rectangle 209" class="cls-3" width="5.01" height="5.01" transform="translate(7.679 21.015)"/>
    </g>
  </g>
  <g id="Group_627" data-name="Group 627" transform="translate(146.876)">
    <rect id="Rectangle_210" data-name="Rectangle 210" class="cls-1" width="31.694" height="111.913"/>
    <rect id="Rectangle_211" data-name="Rectangle 211" class="cls-4" width="31.694" height="5.613"/>
    <g id="Group_626" data-name="Group 626" transform="translate(5.149 9.556)">
      <g id="Group_623" data-name="Group 623" transform="translate(8.899)">
        <rect id="Rectangle_212" data-name="Rectangle 212" class="cls-3" width="3.597" height="7.324"/>
        <rect id="Rectangle_213" data-name="Rectangle 213" class="cls-3" width="3.597" height="7.324" transform="translate(0 14.28)"/>
        <rect id="Rectangle_214" data-name="Rectangle 214" class="cls-3" width="3.597" height="7.324" transform="translate(0 28.558)"/>
        <rect id="Rectangle_215" data-name="Rectangle 215" class="cls-3" width="3.597" height="7.324" transform="translate(0 57.115)"/>
        <rect id="Rectangle_216" data-name="Rectangle 216" class="cls-3" width="3.597" height="7.324" transform="translate(0 71.396)"/>
        <rect id="Rectangle_217" data-name="Rectangle 217" class="cls-3" width="3.597" height="7.324" transform="translate(0 42.838)"/>
      </g>
      <g id="Group_624" data-name="Group 624">
        <rect id="Rectangle_218" data-name="Rectangle 218" class="cls-3" width="3.597" height="7.324"/>
        <rect id="Rectangle_219" data-name="Rectangle 219" class="cls-3" width="3.597" height="7.324" transform="translate(0 14.28)"/>
        <rect id="Rectangle_220" data-name="Rectangle 220" class="cls-3" width="3.597" height="7.324" transform="translate(0 28.558)"/>
        <rect id="Rectangle_221" data-name="Rectangle 221" class="cls-3" width="3.597" height="7.324" transform="translate(0 57.115)"/>
        <rect id="Rectangle_222" data-name="Rectangle 222" class="cls-3" width="3.597" height="7.324" transform="translate(0 71.396)"/>
        <rect id="Rectangle_223" data-name="Rectangle 223" class="cls-3" width="3.597" height="7.324" transform="translate(0 42.838)"/>
      </g>
      <g id="Group_625" data-name="Group 625">
        <rect id="Rectangle_224" data-name="Rectangle 224" class="cls-3" width="3.597" height="7.324" transform="translate(17.795)"/>
        <rect id="Rectangle_225" data-name="Rectangle 225" class="cls-3" width="3.597" height="7.324" transform="translate(17.795 14.28)"/>
        <rect id="Rectangle_226" data-name="Rectangle 226" class="cls-3" width="3.597" height="7.324" transform="translate(17.795 28.558)"/>
        <rect id="Rectangle_227" data-name="Rectangle 227" class="cls-3" width="3.597" height="7.324" transform="translate(17.795 57.115)"/>
        <rect id="Rectangle_228" data-name="Rectangle 228" class="cls-3" width="3.597" height="7.324" transform="translate(17.795 71.396)"/>
        <rect id="Rectangle_229" data-name="Rectangle 229" class="cls-3" width="3.597" height="7.324" transform="translate(8.899 85.321)"/>
        <rect id="Rectangle_230" data-name="Rectangle 230" class="cls-3" width="3.597" height="7.324" transform="translate(0 85.321)"/>
        <rect id="Rectangle_231" data-name="Rectangle 231" class="cls-3" width="3.597" height="7.324" transform="translate(17.795 85.321)"/>
        <rect id="Rectangle_232" data-name="Rectangle 232" class="cls-3" width="3.597" height="7.324" transform="translate(17.795 42.838)"/>
      </g>
    </g>
  </g>
  <g id="Group_635" data-name="Group 635" transform="translate(0 0.01)">
    <rect id="Rectangle_233" data-name="Rectangle 233" class="cls-5" width="106.452" height="82.271" transform="translate(106.452 111.904) rotate(180)"/>
    <rect id="Rectangle_234" data-name="Rectangle 234" class="cls-4" width="44.814" height="82.271" transform="translate(106.428 111.904) rotate(180)"/>
    <path id="Path_3402" data-name="Path 3402" class="cls-6" d="M185.82,29.665,208.535.03l22.1,29.635Z" transform="translate(-124.209 -0.03)"/>
    <path id="Path_3403" data-name="Path 3403" class="cls-1" d="M84.327.03H28.717L0,29.665H61.611Z" transform="translate(0 -0.03)"/>
    <g id="Group_628" data-name="Group 628" transform="translate(9.881 42.251)">
      <rect id="Rectangle_235" data-name="Rectangle 235" class="cls-3" width="5.126" height="11.717"/>
      <rect id="Rectangle_236" data-name="Rectangle 236" class="cls-3" width="5.126" height="11.717" transform="translate(0 22.851)"/>
      <rect id="Rectangle_237" data-name="Rectangle 237" class="cls-3" width="5.126" height="11.717" transform="translate(0 45.703)"/>
    </g>
    <g id="Group_629" data-name="Group 629" transform="translate(28.233 42.251)">
      <rect id="Rectangle_238" data-name="Rectangle 238" class="cls-3" width="5.126" height="11.717"/>
      <rect id="Rectangle_239" data-name="Rectangle 239" class="cls-3" width="5.126" height="11.717" transform="translate(0 22.851)"/>
      <rect id="Rectangle_240" data-name="Rectangle 240" class="cls-3" width="5.126" height="11.717" transform="translate(0 45.703)"/>
    </g>
    <g id="Group_630" data-name="Group 630" transform="translate(46.588 42.251)">
      <rect id="Rectangle_241" data-name="Rectangle 241" class="cls-3" width="5.126" height="11.717"/>
      <rect id="Rectangle_242" data-name="Rectangle 242" class="cls-3" width="5.126" height="11.717" transform="translate(0 22.851)"/>
      <rect id="Rectangle_243" data-name="Rectangle 243" class="cls-3" width="5.126" height="11.717" transform="translate(0 45.703)"/>
    </g>
    <rect id="Rectangle_244" data-name="Rectangle 244" class="cls-3" width="5.126" height="11.717" transform="translate(73.561 42.251)"/>
    <rect id="Rectangle_245" data-name="Rectangle 245" class="cls-3" width="5.126" height="11.717" transform="translate(73.561 65.103)"/>
    <rect id="Rectangle_246" data-name="Rectangle 246" class="cls-3" width="5.126" height="11.717" transform="translate(73.561 88.004)"/>
    <rect id="Rectangle_247" data-name="Rectangle 247" class="cls-3" width="5.126" height="11.717" transform="translate(90.394 88.004)"/>
    <g id="Group_631" data-name="Group 631" transform="translate(90.669 42.251)">
      <rect id="Rectangle_248" data-name="Rectangle 248" class="cls-3" width="5.126" height="11.717"/>
      <rect id="Rectangle_249" data-name="Rectangle 249" class="cls-3" width="5.126" height="11.717" transform="translate(0 22.851)"/>
    </g>
    <rect id="Rectangle_250" data-name="Rectangle 250" class="cls-2" width="11.704" height="12.182" transform="translate(78.69 99.721)"/>
    <g id="Group_634" data-name="Group 634" transform="translate(76.28 18.2)">
      <path id="Path_3404" data-name="Path 3404" class="cls-3" d="M238.449,54.92a8.389,8.389,0,1,0,8.389,8.389A8.39,8.39,0,0,0,238.449,54.92Zm0,11.353a2.967,2.967,0,1,1,2.964-2.967A2.971,2.971,0,0,1,238.449,66.273Z" transform="translate(-230.06 -54.92)"/>
      <g id="Group_633" data-name="Group 633" transform="translate(3.017 10.464)">
        <g id="Group_632" data-name="Group 632">
          <path id="Path_3405" data-name="Path 3405" class="cls-2" d="M239.16,86.48l5.806,3.339-5.806,3.336Z" transform="translate(-239.16 -86.48)"/>
          <path id="Path_3406" data-name="Path 3406" class="cls-2" d="M261.126,86.48l-5.806,3.339,5.806,3.336Z" transform="translate(-249.962 -86.48)"/>
          <circle id="Ellipse_298" data-name="Ellipse 298" class="cls-2" cx="0.809" cy="0.809" r="0.809" transform="translate(4.804 2.417)"/>
        </g>
      </g>
    </g>
  </g>
  <g id="Group_641" data-name="Group 641" transform="translate(199.79 11.986)">
    <g id="Group_636" data-name="Group 636" transform="translate(0 17.805)">
      <path id="Path_3407" data-name="Path 3407" class="cls-1" d="M602.57,171.972h35.563l.043-82.122H602.57Z" transform="translate(-602.57 -89.85)"/>
    </g>
    <g id="Group_637" data-name="Group 637" transform="translate(13.657 84.95)">
      <path id="Path_3408" data-name="Path 3408" class="cls-2" d="M651.114,307.327H643.76v-11.29a3.677,3.677,0,0,1,3.677-3.677h0a3.677,3.677,0,0,1,3.677,3.677Z" transform="translate(-643.76 -292.36)"/>
      <path id="Path_3409" data-name="Path 3409" class="cls-3" d="M652.9,321.8h-3.83v-5.875a1.912,1.912,0,0,1,1.913-1.913h0a1.912,1.912,0,0,1,1.913,1.913V321.8Z" transform="translate(-647.309 -306.832)"/>
      <path id="Path_3410" data-name="Path 3410" class="cls-3" d="M647.437,292.37a3.677,3.677,0,0,0-3.677,3.677v1.515h7.354v-1.515A3.677,3.677,0,0,0,647.437,292.37Z" transform="translate(-643.76 -292.367)"/>
    </g>
    <g id="Group_638" data-name="Group 638" transform="translate(14.513 24.33)">
      <path id="Path_3411" data-name="Path 3411" class="cls-3" d="M651.426,119.881H646.34v-7.808a2.541,2.541,0,0,1,2.543-2.543h0a2.541,2.541,0,0,1,2.543,2.543Z" transform="translate(-646.34 -109.53)"/>
      <path id="Path_3412" data-name="Path 3412" class="cls-3" d="M651.426,166.351H646.34v-7.808A2.541,2.541,0,0,1,648.883,156h0a2.541,2.541,0,0,1,2.543,2.543Z" transform="translate(-646.34 -140.592)"/>
      <path id="Path_3413" data-name="Path 3413" class="cls-3" d="M651.426,215H646.34v-7.808a2.541,2.541,0,0,1,2.543-2.543h0a2.541,2.541,0,0,1,2.543,2.543Z" transform="translate(-646.34 -173.112)"/>
      <path id="Path_3414" data-name="Path 3414" class="cls-3" d="M651.426,262.631H646.34v-7.808a2.541,2.541,0,0,1,2.543-2.543h0a2.541,2.541,0,0,1,2.543,2.543Z" transform="translate(-646.34 -204.949)"/>
    </g>
    <g id="Group_639" data-name="Group 639" transform="translate(6.061 24.33)">
      <path id="Path_3415" data-name="Path 3415" class="cls-3" d="M625.936,119.881H620.85v-7.808a2.541,2.541,0,0,1,2.543-2.543h0a2.541,2.541,0,0,1,2.543,2.543Z" transform="translate(-620.85 -109.53)"/>
      <path id="Path_3416" data-name="Path 3416" class="cls-3" d="M625.936,166.351H620.85v-7.808A2.541,2.541,0,0,1,623.393,156h0a2.541,2.541,0,0,1,2.543,2.543Z" transform="translate(-620.85 -140.592)"/>
      <path id="Path_3417" data-name="Path 3417" class="cls-3" d="M625.936,215H620.85v-7.808a2.541,2.541,0,0,1,2.543-2.543h0a2.541,2.541,0,0,1,2.543,2.543Z" transform="translate(-620.85 -173.112)"/>
      <path id="Path_3418" data-name="Path 3418" class="cls-3" d="M625.936,262.631H620.85v-7.808a2.541,2.541,0,0,1,2.543-2.543h0a2.541,2.541,0,0,1,2.543,2.543Z" transform="translate(-620.85 -204.949)"/>
      <path id="Path_3419" data-name="Path 3419" class="cls-3" d="M625.936,309.971H620.85v-7.808a2.541,2.541,0,0,1,2.543-2.543h0a2.541,2.541,0,0,1,2.543,2.543Z" transform="translate(-620.85 -236.593)"/>
    </g>
    <g id="Group_640" data-name="Group 640" transform="translate(22.964 24.33)">
      <path id="Path_3420" data-name="Path 3420" class="cls-3" d="M676.916,119.881H671.83v-7.808a2.541,2.541,0,0,1,2.543-2.543h0a2.541,2.541,0,0,1,2.543,2.543Z" transform="translate(-671.83 -109.53)"/>
      <path id="Path_3421" data-name="Path 3421" class="cls-3" d="M676.916,166.351H671.83v-7.808A2.541,2.541,0,0,1,674.373,156h0a2.541,2.541,0,0,1,2.543,2.543Z" transform="translate(-671.83 -140.592)"/>
      <path id="Path_3422" data-name="Path 3422" class="cls-3" d="M676.916,215H671.83v-7.808a2.541,2.541,0,0,1,2.543-2.543h0a2.541,2.541,0,0,1,2.543,2.543Z" transform="translate(-671.83 -173.112)"/>
      <path id="Path_3423" data-name="Path 3423" class="cls-3" d="M676.916,262.631H671.83v-7.808a2.541,2.541,0,0,1,2.543-2.543h0a2.541,2.541,0,0,1,2.543,2.543Z" transform="translate(-671.83 -204.949)"/>
      <path id="Path_3424" data-name="Path 3424" class="cls-3" d="M676.916,309.971H671.83v-7.808a2.541,2.541,0,0,1,2.543-2.543h0a2.541,2.541,0,0,1,2.543,2.543Z" transform="translate(-671.83 -236.593)"/>
    </g>
    <path id="Path_3425" data-name="Path 3425" class="cls-3" d="M638.177,53.955l-17.8-17.8-17.8,17.8Z" transform="translate(-602.57 -36.15)"/>
  </g>
  <g id="Group_647" data-name="Group 647" transform="translate(106.425 0.01)">
    <rect id="Rectangle_251" data-name="Rectangle 251" class="cls-3" width="40.447" height="82.271" transform="translate(0 29.635)"/>
    <g id="Group_642" data-name="Group 642" transform="translate(5.033 33.932)">
      <rect id="Rectangle_252" data-name="Rectangle 252" class="cls-6" width="2.984" height="13.153"/>
      <rect id="Rectangle_253" data-name="Rectangle 253" class="cls-1" width="2.984" height="13.153" transform="translate(9.028)"/>
      <rect id="Rectangle_254" data-name="Rectangle 254" class="cls-6" width="2.984" height="13.153" transform="translate(18.054)"/>
      <rect id="Rectangle_255" data-name="Rectangle 255" class="cls-6" width="2.984" height="13.153" transform="translate(27.079)"/>
    </g>
    <g id="Group_643" data-name="Group 643" transform="translate(5.033 57.029)">
      <rect id="Rectangle_256" data-name="Rectangle 256" class="cls-4" width="2.984" height="13.153"/>
      <rect id="Rectangle_257" data-name="Rectangle 257" class="cls-6" width="2.984" height="13.153" transform="translate(9.028)"/>
      <rect id="Rectangle_258" data-name="Rectangle 258" class="cls-1" width="2.984" height="13.153" transform="translate(18.054)"/>
      <rect id="Rectangle_259" data-name="Rectangle 259" class="cls-6" width="2.984" height="13.153" transform="translate(27.079)"/>
    </g>
    <g id="Group_644" data-name="Group 644" transform="translate(5.033 80.129)">
      <rect id="Rectangle_260" data-name="Rectangle 260" class="cls-1" width="2.984" height="13.153"/>
      <rect id="Rectangle_261" data-name="Rectangle 261" class="cls-1" width="2.984" height="13.153" transform="translate(9.028)"/>
      <rect id="Rectangle_262" data-name="Rectangle 262" class="cls-6" width="2.984" height="13.153" transform="translate(18.054)"/>
      <rect id="Rectangle_263" data-name="Rectangle 263" class="cls-4" width="2.984" height="13.153" transform="translate(27.079)"/>
    </g>
    <g id="Group_645" data-name="Group 645" transform="translate(14.539 99.721)">
      <rect id="Rectangle_264" data-name="Rectangle 264" class="cls-1" width="5.196" height="12.182"/>
      <rect id="Rectangle_265" data-name="Rectangle 265" class="cls-1" width="5.514" height="12.182" transform="translate(6.19)"/>
    </g>
    <g id="Group_646" data-name="Group 646">
      <path id="Path_3426" data-name="Path 3426" class="cls-1" d="M320.98,29.665,340.963.03l20.408,29.635Z" transform="translate(-320.98 -0.03)"/>
      <path id="Path_3427" data-name="Path 3427" class="cls-4" d="M381.25.03l20.408,29.635H381.25Z" transform="translate(-361.267 -0.03)"/>
    </g>
  </g>
</svg>
