<?xml version="1.0" encoding="utf-8"?>
<!-- Generator: Adobe Illustrator 23.0.1, SVG Export Plug-In . SVG Version: 6.00 Build 0)  -->
<svg version="1.1" id="Layer_1" xmlns="http://www.w3.org/2000/svg" xmlns:xlink="http://www.w3.org/1999/xlink" x="0px" y="0px"
	 viewBox="0 0 175.8 250" style="enable-background:new 0 0 175.8 250;" xml:space="preserve">
<style type="text/css">
	.st0{fill:#962C61;}
	.st1{fill:#232356;}
	.st2{fill:#FFF6F0;}
	.st3{fill:#EAAEC8;}
	.st4{fill:#ED2127;}
	.st5{fill:#4B82C3;}
	.st6{fill:#111A45;}
	.st7{fill:#E5001C;}
	.st8{fill:#E09CBD;}
	.st9{fill:#FFFFFF;}
	.st10{fill:#13296D;}
</style>
<g id="snowman" transform="translate(-13.705)">
	<g id="tree" transform="translate(149.872 77.453)">
		<rect id="Rectangle_475" x="5.1" y="115.9" class="st0" width="14.5" height="20.6"/>
		<path id="Path_4818" class="st1" d="M39.6,41.8c-7.6,0-20.5-3.1-27.3-17.8C7.7,34.9-3,41.9-14.9,41.8v9.3c4.3,0,12.6-0.2,19.1-4
			C2,57.4-6.6,59.4-14.9,59.4v9.3c4.3,0,12.6-0.2,19.1-4C2,75-6.6,76.9-14.9,76.9v9.3c4.3,0,12.6-0.2,19.1-4
			C2,92.5-6.6,94.5-14.9,94.5v9.3c4.3,0,12.6-0.2,19.1-4C2,110.1-6.6,112-14.9,112v9.3h54.5V112c-8.3,0-16.9-1.9-19.1-12.2
			c6.5,3.8,14.8,4,19.1,4v-9.3c-8.3,0-16.9-1.9-19.1-12.2c6.5,3.8,14.8,4,19.1,4v-9.3c-8.3,0-16.9-1.9-19.1-12.2
			c6.5,3.8,14.8,4,19.1,4v-9.3c-8.3,0-16.9-1.9-19.1-12.2c6.5,3.8,14.8,4,19.1,4V41.8L39.6,41.8z"/>
	</g>
	<g id="group" transform="translate(13.705)">
		<g id="Group_1449" transform="translate(0 127.896)">
			<ellipse id="Ellipse_737" class="st2" cx="60.6" cy="61.1" rx="60.6" ry="61.1"/>
			<ellipse id="Ellipse_738" class="st1" cx="60.6" cy="80.3" rx="4.8" ry="4.8"/>
			<ellipse id="Ellipse_739" class="st1" cx="60.6" cy="102.4" rx="4.8" ry="4.8"/>
		</g>
		<path id="Path_4426" class="st3" d="M35.1,120.5l-7.3,16.7c0,0,42.8,30.3,70.6-5c0,0,10.1-15.1,22.9-14.6V95
			c-10.9,0.6-20.9,6.3-27.1,15.4C67.8,148,35.6,120.8,35.1,120.5z"/>
		<ellipse id="Ellipse_740" class="st2" cx="60.6" cy="91.5" rx="38.4" ry="38.7"/>
		<path id="Path_4427" class="st1" d="M95.7,0H22.5l15.4,58.5h41.9L95.7,0z"/>
		<path id="Path_4428" class="st3" d="M86,35.9H32l5.2,19.9h43.4L86,35.9z"/>
		<rect id="Rectangle_453" x="0" y="53.9" class="st1" width="121.3" height="9.7"/>
		<g id="Group_1450" transform="translate(54.205 99.199)">
			<path id="Path_4430" class="st1" d="M5.6,14.9c-1.9,0-3.8-0.4-5.6-1.2l1.1-2.5c3.2,1.4,8,1.4,11.1-1.4c2.2-2,3.1-5.5,2.4-9.3
				L17.3,0c0.9,4.8-0.3,9.1-3.2,11.8C11.7,13.8,8.7,14.9,5.6,14.9z"/>
		</g>
		<ellipse id="Ellipse_742" class="st3" cx="42.3" cy="113.5" rx="3.8" ry="3.8"/>
		<ellipse id="Ellipse_743" class="st3" cx="82.7" cy="102.2" rx="3.8" ry="3.8"/>
		<g id="Group_1452" transform="translate(28.129 86.305)">
			<path id="Path_4431" class="st4" d="M25.5,1.1l-25,17C0,18.4-0.1,19,0.1,19.4c0.2,0.3,0.6,0.5,1,0.4l30-5.6
				c3.1-0.6,5.3-3.4,5.1-6.6c0-3.3-2.1-6.2-5.2-7.2C29.2-0.3,27.1-0.1,25.5,1.1z"/>
			<g id="Group_1451" transform="translate(6.821 1.029)">
				<path id="Path_4432" class="st1" d="M0.5,17.7l2.7-0.6c0.2-2-0.1-4.1-0.9-6L0,12.7C0.6,14.3,0.7,16,0.5,17.7z"/>
				<path id="Path_4433" class="st1" d="M21.5,13.7C21.9,9,20.9,4.2,18.7,0c0,0-0.1,0-0.1,0.1c0,0,0,0,0,0l-2.2,1.4
					c2,3.9,2.8,8.3,2.3,12.7L21.5,13.7z"/>
				<path id="Path_4434" class="st1" d="M11.9,15.5c0.4-3.4-0.1-6.8-1.6-9.8L7.9,7.2C9.2,10,9.5,13,9,16L11.9,15.5z"/>
			</g>
		</g>
		<g id="Group_1467" transform="translate(27.959 98.096)">
			<path id="Path_4441" class="st2" d="M6.3,24.3h3.4c-0.9-0.6-1.8-1.2-2.6-1.9L6.3,24.3z"/>
			<path id="Path_4442" class="st2" d="M27.5,31.7c-2.7-0.5-5.4-1.2-8-2.3H4.1l-1,2.3H27.5z"/>
			<path id="Path_4443" class="st2" d="M1,36.7L0,39h66.3c0.7-0.7,1.4-1.4,2.1-2.3H1z"/>
			<path id="Path_4444" class="st2" d="M46.9,29.4c-2.4,1-4.8,1.8-7.3,2.3h32.8c0.5-0.7,1.2-1.4,2-2.3H46.9z"/>
			<path id="Path_4445" class="st2" d="M8.4,44.1c1.5,0.8,3.2,1.5,5,2.3h43c1.2-0.7,2.4-1.4,3.6-2.3H8.4z"/>
			<path id="Path_4446" class="st2" d="M57.9,22c-0.9,0.8-1.8,1.6-2.7,2.3H80c1.1-0.8,2.3-1.6,3.6-2.3H57.9z"/>
			<path id="Path_4447" class="st2" d="M70.4,7.4c-0.7,0.7-1.4,1.4-2.1,2.3h25V7.4H70.4z"/>
			<path id="Path_4448" class="st2" d="M80.9,0c-1.4,0.7-2.8,1.4-4.2,2.3h16.6V0H80.9z"/>
			<path id="Path_4449" class="st2" d="M64.5,14.7c-0.6,0.8-1.2,1.5-1.8,2.3h30.6v-2.3H64.5z"/>
		</g>
		<ellipse id="Ellipse_741" class="st1" cx="41.7" cy="82.9" rx="7" ry="7"/>
	</g>
	<g id="snowman_iPad" transform="translate(-665.967 -992.149)">
		<path id="Path_15585" class="st5" d="M759.2,1127.9h-36.9c-1.6,0-3,1.3-3,3v50.8c0,1.6,1.3,3,3,3h36.9c1.6,0,3-1.3,3-3v-50.8
			C762.1,1129.2,760.8,1127.9,759.2,1127.9"/>
		<rect id="Rectangle_1422" x="721.6" y="1133.5" class="st6" width="38.2" height="46"/>
		<path id="Path_15586" class="st6" d="M740.7,1130.7c0.3,0,0.6,0.3,0.6,0.6c0,0.3-0.3,0.6-0.6,0.6c-0.3,0-0.6-0.3-0.6-0.6l0,0
			C740.2,1130.9,740.4,1130.7,740.7,1130.7"/>
		<path id="Path_15587" class="st7" d="M729.2,1163.7h22.6c3.4,1.3,6.2,3.8,8,6.9l0.2,9h-38.4v-9.6
			C723.3,1167.1,726,1164.9,729.2,1163.7"/>
		<path id="Path_15588" class="st8" d="M732.4,1155.7c0,6.1,4.6,10.8,8.2,10.8c3.4,0,8-4.5,8-10.6s-3.8-8.9-8-8.9
			S732.4,1149.6,732.4,1155.7"/>
		<path id="Path_15589" class="st8" d="M748.6,1159.5c-0.2-0.2-0.3-0.6-0.4-0.7l-0.1-1.4c0,0,0.3-0.4,1.2-0.7
			c0.4-0.1,0.7-0.1,0.9,0.3c0.1,0.2,0.1,0.3,0.1,0.5l-0.3,1.5c0,0,0,0.1,0,0.1c-0.1,0.5-0.6,0.8-1.1,0.7
			C748.8,1159.6,748.7,1159.6,748.6,1159.5"/>
		<path id="Path_15590" class="st8" d="M732.3,1159.5c0.2-0.2,0.3-0.6,0.4-0.7l0.1-1.4c0,0-0.3-0.4-1.2-0.7
			c-0.4-0.1-0.7-0.1-0.9,0.3c-0.1,0.2-0.1,0.3-0.1,0.5l0.3,1.5c0,0,0,0.1,0,0.1c0.1,0.5,0.6,0.8,1.1,0.7
			C732.1,1159.6,732.2,1159.6,732.3,1159.5"/>
		<path id="Path_15591" class="st9" d="M745.7,1157.5c0-0.1-0.1-0.1-0.1-0.2c0-0.1-0.1-0.1-0.1-0.2c0-0.1-0.1-0.1-0.2-0.2
			c-0.1-0.1-0.1-0.2-0.2-0.2c-0.1-0.1-0.2-0.2-0.3-0.2c0,0-0.1-0.1-0.2-0.1c-0.1,0-0.1-0.1-0.2-0.1l-0.2-0.1c-0.1,0-0.1,0-0.2-0.1
			c-0.1,0-0.2-0.1-0.4-0.1c-0.1,0-0.2,0-0.4,0s-0.2,0-0.3,0c-0.1,0-0.2,0-0.3,0c-0.1,0-0.2,0-0.3,0l-0.2,0l0,0c-0.1,0-0.2,0-0.2-0.1
			l-0.1-0.5c0-0.1,0-0.2,0.1-0.2c0,0,0,0,0,0h0l0.2,0c0.1,0,0.2,0,0.3,0c0.1,0,0.2,0,0.4,0c0.1,0,0.3,0,0.4,0c0.1,0,0.3,0.1,0.4,0.1
			c0.1,0.1,0.3,0.1,0.4,0.2c0.1,0,0.1,0.1,0.2,0.1l0.2,0.1c0.1,0,0.1,0.1,0.2,0.1c0.1,0.1,0.1,0.1,0.2,0.2c0.1,0.1,0.2,0.2,0.2,0.3
			c0.1,0.1,0.1,0.2,0.2,0.3c0.1,0.2,0.1,0.3,0.2,0.5C745.7,1157.4,745.7,1157.5,745.7,1157.5"/>
		<path id="Path_15592" class="st10" d="M744.8,1158.2l-0.1-0.1c-0.1-0.1-0.2-0.2-0.3-0.3c-0.1-0.1-0.3-0.2-0.4-0.3
			c-0.1-0.1-0.3-0.1-0.5-0.1h-0.1l-0.1,0c0,0-0.1,0-0.1,0c-0.1,0-0.2,0.1-0.2,0.1c-0.1,0.1-0.3,0.2-0.4,0.3
			c-0.1,0.1-0.2,0.2-0.2,0.3c0,0.1-0.1,0.1-0.1,0.1c0-0.1,0-0.1,0-0.2c0-0.1,0-0.3,0.1-0.4c0.1-0.3,0.4-0.6,0.7-0.7
			c0.1,0,0.1,0,0.2-0.1l0.1,0c0,0,0.1,0,0.1,0c0.1,0,0.3,0,0.4,0.1c0.1,0,0.2,0.1,0.3,0.2c0.2,0.1,0.3,0.3,0.4,0.5
			c0.1,0.1,0.1,0.3,0.1,0.4C744.7,1158.1,744.7,1158.1,744.8,1158.2"/>
		<path id="Path_15593" class="st9" d="M735.8,1157.5c0-0.1,0.1-0.1,0.1-0.2c0-0.1,0.1-0.1,0.1-0.2c0-0.1,0.1-0.1,0.2-0.2
			c0.1-0.1,0.1-0.2,0.2-0.2c0.1-0.1,0.2-0.2,0.3-0.2c0,0,0.1-0.1,0.2-0.1c0.1,0,0.1-0.1,0.2-0.1l0.2-0.1c0.1,0,0.1,0,0.2-0.1
			c0.1,0,0.2-0.1,0.4-0.1c0.1,0,0.2,0,0.4,0s0.2,0,0.3,0c0.1,0,0.2,0,0.3,0c0.1,0,0.2,0,0.3,0l0.2,0l0,0c0.1,0,0.2,0,0.2-0.1
			l0.1-0.5c0-0.1,0-0.2-0.1-0.2c0,0,0,0,0,0h0l-0.2,0c-0.1,0-0.2,0-0.3,0c-0.1,0-0.2,0-0.4,0c-0.1,0-0.3,0-0.4,0
			c-0.1,0-0.3,0.1-0.4,0.1c-0.1,0.1-0.3,0.1-0.4,0.2c-0.1,0-0.1,0.1-0.2,0.1l-0.2,0.1c-0.1,0-0.1,0.1-0.2,0.1
			c-0.1,0.1-0.1,0.1-0.2,0.2c-0.1,0.1-0.2,0.2-0.2,0.3c-0.1,0.1-0.1,0.2-0.2,0.3c-0.1,0.2-0.1,0.3-0.2,0.5
			C735.8,1157.4,735.8,1157.5,735.8,1157.5"/>
		<path id="Path_15594" class="st10" d="M736.6,1158.2l0.1-0.1c0.1-0.1,0.2-0.2,0.3-0.3c0.1-0.1,0.3-0.2,0.4-0.3
			c0.1-0.1,0.3-0.1,0.5-0.1h0.1l0.1,0c0,0,0.1,0,0.1,0c0.1,0,0.2,0.1,0.2,0.1c0.1,0.1,0.3,0.2,0.4,0.3c0.1,0.1,0.2,0.2,0.2,0.3
			c0,0.1,0.1,0.1,0.1,0.1c0-0.1,0-0.1,0-0.2c0-0.1,0-0.3-0.1-0.4c-0.1-0.3-0.4-0.6-0.7-0.7c-0.1,0-0.1,0-0.2-0.1l-0.1,0
			c0,0-0.1,0-0.1,0c-0.1,0-0.3,0-0.4,0.1c-0.1,0-0.2,0.1-0.3,0.2c-0.2,0.1-0.3,0.3-0.4,0.5c-0.1,0.1-0.1,0.3-0.1,0.4
			C736.6,1158.1,736.6,1158.1,736.6,1158.2"/>
		<path id="Path_15595" class="st9" d="M739.8,1145.6L739.8,1145.6c0.1,0,8.1-3.1,9.6,7.4l-0.6,3.7c-2.1-0.9-3.9-2.5-5.1-4.4
			c-0.1,0.8,0.2,1.6,0.8,2.2c-2.3,0-3.4-1-3.9-2.2c-0.8,1.5-2.5,2.4-4.2,2.2c0.7-0.5,0.9-1.5,0.5-2.3c0,0-0.8,3.1-5,4.4l-0.5-3.5
			C733.4,1145.3,737.6,1145.1,739.8,1145.6"/>
		<path id="Path_15596" class="st9" d="M729.2,1163.7c3.5-1.7,2.9-7.4,2.9-7.4l1-0.2l0.5,2.6c0.2,0.9,0.4,1.7,0.7,2.5
			c0-0.3,0-0.6,0-0.8c0.1-0.8,0.5-1.5,1.1-1.9c0,0,0.1,0,0.1,0c0,0,0,0.1,0,0.1c-0.7,2.1,0.2,2.7,0.2,2.7c0.2,0.1,0.3,0.2,0.5,0.1
			c0.3,0,0.5-0.1,0.7-0.4c0.4-0.8,1.3-1.3,2.3-1.3c0.5,0.1,1,0.4,1.3,0.8c0.3-0.5,0.8-0.8,1.4-0.8c0.9-0.1,1.8,0.4,2.3,1.3
			c0.2,0.2,0.4,0.4,0.7,0.4c0.2,0,0.4,0,0.5-0.1c0,0,0.9-0.6,0.2-2.7c0-0.1,0-0.1,0.1-0.1c0,0,0.1,0,0.1,0c0.6,0.5,1,1.2,1.1,1.9
			c0,0.2,0,0.5,0,0.7c0.3-0.8,0.5-1.6,0.6-2.4l0.5-2.6l1-0.1c0,0-1.1,6.2,2.9,7.7c0,0-0.1,2.3-1.9,3.1c1.3,1.4,1.2,3.6-0.2,4.9
			c-0.3,0.3-0.7,0.6-1.2,0.7c0,0.1,0,0.3,0,0.4c-1,3.5-4.6,5.6-8.2,4.6c-1.1-0.3-2.1-0.9-2.9-1.7c-1.6,1-3.7,0.4-4.7-1.2
			c-0.3-0.5-0.5-1.1-0.5-1.8c0.2-1.6-0.7-3.1-2.2-3.7c0-0.9,0.3-1.7,0.9-2.3C729.2,1166,729.1,1163.7,729.2,1163.7"/>
		<path id="Path_15597" class="st10" d="M740.9,1159.8h-0.5c-0.2,0-0.4-0.1-0.6-0.2l0,0c-0.1-0.1-0.1-0.2-0.1-0.4
			c0-0.1,0.1-0.2,0.2-0.3c0.7-0.6,1-1.4,0.9-2.3l0.2,0c0.1,0.9-0.2,1.9-1,2.5c0,0-0.1,0.1-0.1,0.2c0,0.1,0,0.2,0.1,0.2
			c0.1,0.1,0.3,0.2,0.4,0.2h0.5L740.9,1159.8z"/>
		<path id="Path_15598" class="st10" d="M738.1,1161.1c0,0,0.8,1.8,2.3,1.8c1.6,0,2.4-1.8,2.4-1.8H738.1z"/>
		<path id="Path_15599" class="st7" d="M741.8,1162.4c-0.4,0.3-0.8,0.5-1.3,0.5c-0.5,0-1-0.2-1.3-0.5c0.6-0.7,1.6-0.9,2.3-0.3
			C741.6,1162.2,741.7,1162.3,741.8,1162.4"/>
		<path id="Path_15600" class="st7" d="M731.5,1151.1c0,0-0.2-9.2,9.9-10.2c5.4-0.5,8.7,0.8,11.9,4c0,0-7-0.6-3.2,6l-12.9,0
			L731.5,1151.1z"/>
		<path id="Path_15601" class="st9" d="M755.6,1145.4c0,0.7-0.5,1.2-1.2,1.2s-1.2-0.5-1.2-1.2s0.5-1.2,1.2-1.2
			S755.6,1144.7,755.6,1145.4L755.6,1145.4"/>
		<path id="Path_15602" class="st9" d="M732,1153.4c5.4-2,11.3-2,16.6-0.1c0.5,0.2,1.2-0.1,1.4-0.6l0.5-1.2c0.2-0.6,0-1.2-0.6-1.4
			c0,0,0,0,0,0c-6.2-2.3-13-2.2-19.2,0.1c-0.5,0.2-0.7,0.7-0.5,1.2c0,0,0,0,0,0l0.6,1.6C731.1,1153.4,731.6,1153.6,732,1153.4"/>
	</g>
	<g id="snowman_hand_left" transform="translate(43.49 164.381)">
		<path id="Path_11686" class="st1" d="M-17.1-13.3l1.8-2L8.2,6.3l-1.8,2L-17.1-13.3z"/>
		<path id="Path_4439" class="st1" d="M28.4,8.4l-7.7-2.2c-2.3-0.6-4.4-1.8-6.2-3.4l-1.4-1.2L1.9,14.5l15.5,13.8l0,0
			c3.6,2.7,8.6,2.2,11.6-1.1c3.1-3.6,2.8-9-0.7-12.1c-0.1-0.1-1.3-1.1-1.4-1.2l-0.9-0.8l1.2,0.3c1.3,0.4,2.7-0.4,3.1-1.7
			c0-0.1,0.1-0.2,0.1-0.3C30.5,10.1,29.7,8.8,28.4,8.4z"/>
		<path id="Path_11688" class="st3" d="M0,12.9L11.5,0l4.2,3.7l-11.4,13L0,12.9z"/>
	</g>
	<g id="snowman_hand_right" transform="translate(74.586 164.219)">
		<path id="Path_11687" class="st1" d="M22.4,6.4l23.5-21.6l1.8,2L24.2,8.4L22.4,6.4z"/>
		<path id="Path_4440" class="st1" d="M2.7,8.4l7.7-2.2c2.3-0.6,4.4-1.8,6.2-3.4l1.4-1.2l11.3,12.9L13.7,28.3l0,0
			c-3.6,2.7-8.6,2.2-11.6-1.1c-3.1-3.6-2.8-9,0.7-12.1C3,14.9,4.2,14,4.3,13.8l0.9-0.8l-1.2,0.3c-1.3,0.4-2.7-0.4-3.1-1.7
			c0-0.1-0.1-0.2-0.1-0.3C0.6,10.1,1.4,8.9,2.7,8.4z"/>
		<path id="Path_11689" class="st3" d="M15.6,3.7L19.8,0l11.4,13L27,16.7L15.6,3.7z"/>
	</g>
	<ellipse id="snowman_eye_blue" class="st1" cx="91.4" cy="82.9" rx="7" ry="7"/>
	<ellipse id="snowman_eye_white" class="st2" cx="91.4" cy="86.9" rx="7" ry="7"/>
</g>
</svg>
